<svg width="28" height="28" viewBox="0 0 28 28" fill="none" xmlns="http://www.w3.org/2000/svg">
<path d="M10.9149 23.375C11.6883 23.375 12.163 22.9355 12.1542 22.1973L11.9784 12.2393C11.9784 11.8789 12.1014 11.668 12.3915 11.5361C13.5868 11 14.1229 10.4375 14.0438 8.81152L13.7977 3.42383C13.7713 3.01074 13.534 2.77344 13.1561 2.77344C12.7782 2.77344 12.5585 3.02832 12.5585 3.44141L12.6288 8.6709C12.6288 8.99609 12.4266 9.18945 12.1366 9.18945C11.8378 9.18945 11.6356 9.00488 11.6268 8.69727L11.5389 3.27441C11.5301 2.87891 11.2928 2.63281 10.9149 2.63281C10.537 2.63281 10.2997 2.87891 10.2909 3.27441L10.203 8.69727C10.203 8.99609 9.99205 9.18945 9.69322 9.18945C9.40318 9.18945 9.20104 8.99609 9.20983 8.6709L9.27135 3.44141C9.27135 3.02832 9.05162 2.77344 8.67369 2.77344C8.29576 2.77344 8.05846 3.01953 8.03209 3.42383L7.786 8.81152C7.7069 10.4375 8.24303 11 9.43834 11.5361C9.72838 11.668 9.85143 11.8789 9.85143 12.2393L9.67565 22.1973C9.65807 22.9355 10.1415 23.375 10.9149 23.375ZM17.9022 15.6055L17.7264 22.1621C17.7001 22.9355 18.1922 23.375 18.9569 23.375C19.7391 23.375 20.2137 22.9707 20.2137 22.2412V3.31836C20.2137 2.86133 19.9149 2.63281 19.5633 2.63281C19.2294 2.63281 18.9921 2.81738 18.702 3.23047C17.2694 5.24316 16.285 9.11035 16.285 12.626V13.0918C16.285 13.7246 16.5047 14.1553 16.9881 14.4893L17.4628 14.8057C17.7792 15.0254 17.911 15.2627 17.9022 15.6055Z" fill="#939393"/>
</svg>
