<svg width="28" height="28" viewBox="0 0 28 28" fill="none" xmlns="http://www.w3.org/2000/svg">
<path d="M3.08422 13.2061C3.08422 13.6631 3.427 14.0498 3.9895 14.0498C4.26196 14.0498 4.49926 13.9092 4.7102 13.7246L13.4465 6.40332C13.6838 6.19238 13.9563 6.19238 14.1936 6.40332L22.9211 13.7246C23.1321 13.9092 23.3694 14.0498 23.6418 14.0498C24.1516 14.0498 24.5383 13.7334 24.5383 13.2324C24.5383 12.9336 24.4241 12.6963 24.1956 12.5117L21.7258 10.4287V6.79883C21.7258 6.40332 21.4709 6.14844 21.0842 6.14844H19.8977C19.5022 6.14844 19.2385 6.40332 19.2385 6.79883V8.3457L15.0549 4.82129C14.2991 4.18848 13.3498 4.18848 12.5852 4.82129L3.427 12.5117C3.19848 12.7051 3.08422 12.96 3.08422 13.2061ZM5.93188 21.1074C5.93188 22.373 6.7229 23.1289 8.01489 23.1289H19.6077C20.9084 23.1289 21.6995 22.373 21.6995 21.1074V14.4102L14.3518 8.24902C14.0178 7.95898 13.6047 7.96777 13.2707 8.24902L5.93188 14.4014V21.1074ZM16.1096 21.5029H11.5041V15.8516C11.5041 15.4385 11.7766 15.1748 12.1897 15.1748H15.4329C15.8459 15.1748 16.1096 15.4385 16.1096 15.8516V21.5029Z" fill="#939393"/>
</svg>
