<svg width="31" height="31" viewBox="0 0 31 31" fill="none" xmlns="http://www.w3.org/2000/svg">
<path d="M8.79541 24.2252H22.1947C24.3062 24.2252 25.4058 23.1354 25.4058 21.053V9.21068C25.4058 7.1283 24.3062 6.03845 22.1947 6.03845H8.79541C6.69357 6.03845 5.59399 7.11857 5.59399 9.21068V21.053C5.59399 23.1354 6.69357 24.2252 8.79541 24.2252ZM8.78568 22.2888C7.97803 22.2888 7.53041 21.8704 7.53041 21.0141V12.0618C7.53041 11.2055 7.97803 10.7871 8.78568 10.7871H22.2044C23.012 10.7871 23.4597 11.2055 23.4597 12.0618V21.0141C23.4597 21.8704 23.012 22.2888 22.2044 22.2888H8.78568ZM13.6219 14.1442H14.196C14.5463 14.1442 14.6631 14.0371 14.6631 13.6966V13.1224C14.6631 12.7721 14.5463 12.6651 14.196 12.6651H13.6219C13.2716 12.6651 13.1548 12.7721 13.1548 13.1224V13.6966C13.1548 14.0371 13.2716 14.1442 13.6219 14.1442ZM16.8038 14.1442H17.3779C17.7185 14.1442 17.8353 14.0371 17.8353 13.6966V13.1224C17.8353 12.7721 17.7185 12.6651 17.3779 12.6651H16.8038C16.4535 12.6651 16.3367 12.7721 16.3367 13.1224V13.6966C16.3367 14.0371 16.4535 14.1442 16.8038 14.1442ZM19.976 14.1442H20.5502C20.9005 14.1442 21.0172 14.0371 21.0172 13.6966V13.1224C21.0172 12.7721 20.9005 12.6651 20.5502 12.6651H19.976C19.6355 12.6651 19.5187 12.7721 19.5187 13.1224V13.6966C19.5187 14.0371 19.6355 14.1442 19.976 14.1442ZM10.4496 17.2775H11.014C11.3643 17.2775 11.4811 17.1704 11.4811 16.8201V16.246C11.4811 15.9054 11.3643 15.7984 11.014 15.7984H10.4496C10.0993 15.7984 9.98256 15.9054 9.98256 16.246V16.8201C9.98256 17.1704 10.0993 17.2775 10.4496 17.2775ZM13.6219 17.2775H14.196C14.5463 17.2775 14.6631 17.1704 14.6631 16.8201V16.246C14.6631 15.9054 14.5463 15.7984 14.196 15.7984H13.6219C13.2716 15.7984 13.1548 15.9054 13.1548 16.246V16.8201C13.1548 17.1704 13.2716 17.2775 13.6219 17.2775ZM16.8038 17.2775H17.3779C17.7185 17.2775 17.8353 17.1704 17.8353 16.8201V16.246C17.8353 15.9054 17.7185 15.7984 17.3779 15.7984H16.8038C16.4535 15.7984 16.3367 15.9054 16.3367 16.246V16.8201C16.3367 17.1704 16.4535 17.2775 16.8038 17.2775ZM19.976 17.2775H20.5502C20.9005 17.2775 21.0172 17.1704 21.0172 16.8201V16.246C21.0172 15.9054 20.9005 15.7984 20.5502 15.7984H19.976C19.6355 15.7984 19.5187 15.9054 19.5187 16.246V16.8201C19.5187 17.1704 19.6355 17.2775 19.976 17.2775ZM10.4496 20.401H11.014C11.3643 20.401 11.4811 20.294 11.4811 19.9534V19.3793C11.4811 19.029 11.3643 18.922 11.014 18.922H10.4496C10.0993 18.922 9.98256 19.029 9.98256 19.3793V19.9534C9.98256 20.294 10.0993 20.401 10.4496 20.401ZM13.6219 20.401H14.196C14.5463 20.401 14.6631 20.294 14.6631 19.9534V19.3793C14.6631 19.029 14.5463 18.922 14.196 18.922H13.6219C13.2716 18.922 13.1548 19.029 13.1548 19.3793V19.9534C13.1548 20.294 13.2716 20.401 13.6219 20.401ZM16.8038 20.401H17.3779C17.7185 20.401 17.8353 20.294 17.8353 19.9534V19.3793C17.8353 19.029 17.7185 18.922 17.3779 18.922H16.8038C16.4535 18.922 16.3367 19.029 16.3367 19.3793V19.9534C16.3367 20.294 16.4535 20.401 16.8038 20.401Z" fill="#939393"/>
</svg>
