<svg width="28" height="28" viewBox="0 0 28 28" fill="none" xmlns="http://www.w3.org/2000/svg">
<path d="M6.94226 24.1133H7.99695C8.7616 24.1133 9.28015 23.5947 9.28015 22.8301V21.4854C10.6952 21.5908 12.286 21.6348 13.9911 21.6348C15.6962 21.6348 17.287 21.5908 18.702 21.4854V22.8301C18.702 23.5947 19.2206 24.1133 19.994 24.1133H21.0487C21.8134 24.1133 22.3319 23.5859 22.3319 22.8301V20.5449C22.6307 20.1846 22.7802 19.7188 22.7802 19.1475V11.9756H23.1844C23.7469 11.9756 24.1512 11.6152 24.1512 11.0791V7.29102C24.1512 6.75488 23.7469 6.39453 23.1844 6.39453H22.7802V5.47168C22.7802 4.24121 22.077 3.50293 20.785 3.32715C18.9745 3.09863 16.5311 2.98438 13.9911 2.98438C11.451 2.98438 9.00769 3.09863 7.19714 3.32715C5.91394 3.50293 5.20203 4.25 5.20203 5.47168V6.39453H4.80652C4.24402 6.39453 3.83972 6.75488 3.83972 7.29102V11.0791C3.83972 11.6152 4.24402 11.9756 4.80652 11.9756H5.20203V19.1475C5.20203 19.7188 5.36023 20.1846 5.65027 20.5361V22.8301C5.65027 23.5859 6.16882 24.1133 6.94226 24.1133ZM13.9911 20.2197C11.328 20.2197 9.13953 20.1055 7.61023 19.9033C6.88953 19.7979 6.62585 19.4111 6.62585 18.7344V5.88477C6.62585 5.2168 6.95984 4.8125 7.61023 4.71582C9.11316 4.51367 11.4247 4.39941 13.9911 4.39941C16.5399 4.4082 18.8514 4.52246 20.3719 4.71582C21.0927 4.8125 21.3651 5.19922 21.3651 5.88477V18.7344C21.3651 19.4199 21.0927 19.8066 20.3719 19.9033C18.8251 20.0967 16.6278 20.2197 13.9911 20.2197ZM8.38367 15.333C11.7147 15.8779 16.2675 15.8779 19.6161 15.333C20.1962 15.2363 20.4862 14.8936 20.4862 14.2783V6.74609C20.4862 6.05176 20.1522 5.65625 19.493 5.59473C16.1444 5.26074 11.8729 5.26953 8.5155 5.59473C7.85632 5.65625 7.51355 6.05176 7.51355 6.74609V14.2783C7.51355 14.8936 7.80359 15.2363 8.38367 15.333ZM8.99011 18.9014C9.60535 18.9014 10.08 18.4268 10.08 17.8115C10.08 17.1963 9.60535 16.7217 8.99011 16.7217C8.36609 16.7217 7.89148 17.1963 7.89148 17.8115C7.89148 18.4268 8.36609 18.9014 8.99011 18.9014ZM19.0009 18.9014C19.6161 18.9014 20.0995 18.4268 20.0995 17.8115C20.0995 17.1963 19.6161 16.7217 19.0009 16.7217C18.3856 16.7217 17.911 17.1963 17.911 17.8115C17.911 18.4268 18.3856 18.9014 19.0009 18.9014ZM11.9784 18.6025H16.0389C16.5135 18.6025 16.8475 18.2686 16.8475 17.7939C16.8475 17.3193 16.5135 16.9941 16.0389 16.9941H11.9784C11.4598 16.9941 11.1259 17.3193 11.1259 17.7939C11.1259 18.2686 11.4598 18.6025 11.9784 18.6025Z" fill="#939393"/>
</svg>
